<?xml version="1.0" encoding="UTF-8" standalone="no"?>
<!DOCTYPE svg PUBLIC "-//W3C//DTD SVG 1.1//EN" "http://www.w3.org/Graphics/SVG/1.1/DTD/svg11.dtd">
<!-- 由 Microsoft Visio, SVG Export 生成 绘图1.svg Page-1 -->
<svg xmlns="http://www.w3.org/2000/svg" xmlns:xlink="http://www.w3.org/1999/xlink" xmlns:ev="http://www.w3.org/2001/xml-events"
		xmlns:v="http://schemas.microsoft.com/visio/2003/SVGExtensions/" width="11.6929in" height="8.26772in"
		viewBox="0 0 841.89 595.276" xml:space="preserve" color-interpolation-filters="sRGB" class="st9">
	<v:documentProperties v:langID="2052" v:metric="true" v:viewMarkup="false">
		<v:userDefs>
			<v:ud v:nameU="msvSubprocessMaster" v:prompt="" v:val="VT4(Rectangle)"/>
			<v:ud v:nameU="msvNoAutoConnect" v:val="VT0(1):26"/>
		</v:userDefs>
	</v:documentProperties>

	<style type="text/css">
	<![CDATA[
		.st1 {fill:#4672c4;fill-opacity:0.5;stroke:#c7c8c8;stroke-opacity:0.5;stroke-width:0.25}
		.st2 {fill:#feffff;font-family:Calibri;font-size:1.99999em}
		.st3 {fill:#4672c4;stroke:#c7c8c8;stroke-width:0.25}
		.st4 {marker-end:url(#mrkr13-24);marker-start:url(#mrkr13-22);stroke:#4672c4;stroke-linecap:round;stroke-linejoin:round;stroke-width:1}
		.st5 {fill:#4672c4;fill-opacity:1;stroke:#4672c4;stroke-opacity:1;stroke-width:0.28409090909091}
		.st6 {marker-start:url(#mrkr13-22);stroke:#4672c4;stroke-linecap:round;stroke-linejoin:round;stroke-width:1}
		.st7 {fill:none;stroke:none;stroke-width:0.25}
		.st8 {fill:#4672c4;font-family:Calibri;font-size:1.99999em}
		.st9 {fill:none;fill-rule:evenodd;font-size:12px;overflow:visible;stroke-linecap:square;stroke-miterlimit:3}
	]]>
	</style>

	<defs id="Markers">
		<g id="lend13">
			<path d="M 3 1 L 0 0 L 3 -1 L 3 1 " style="stroke:none"/>
		</g>
		<marker id="mrkr13-22" class="st5" v:arrowType="13" v:arrowSize="2" v:setback="10.2" refX="10.2" orient="auto"
				markerUnits="strokeWidth" overflow="visible">
			<use xlink:href="#lend13" transform="scale(3.52) "/>
		</marker>
		<marker id="mrkr13-24" class="st5" v:arrowType="13" v:arrowSize="2" v:setback="10.2" refX="-10.2" orient="auto"
				markerUnits="strokeWidth" overflow="visible">
			<use xlink:href="#lend13" transform="scale(-3.52,-3.52) "/>
		</marker>
	</defs>
	<g v:mID="0" v:index="1" v:groupContext="foregroundPage">
		<v:userDefs>
			<v:ud v:nameU="msvThemeOrder" v:val="VT0(0):26"/>
		</v:userDefs>
		<title>页-1</title>
		<v:pageProperties v:drawingScale="0.0393701" v:pageScale="0.0393701" v:drawingUnits="24" v:shadowOffsetX="8.50394"
				v:shadowOffsetY="-8.50394"/>
		<g id="shape21-1" v:mID="21" v:groupContext="shape" transform="translate(470.852,-104.882)">
			<title>椭圆形.21</title>
			<desc>Cache Server</desc>
			<v:userDefs>
				<v:ud v:nameU="visVersion" v:val="VT0(15):26"/>
				<v:ud v:nameU="visMasterStencil" v:prompt="" v:val="VT4(Basic_M.vssx)"/>
			</v:userDefs>
			<v:textBlock v:margins="rect(4,4,4,4)" v:tabSpace="42.5197"/>
			<v:textRect cx="78.5109" cy="538.583" width="137.4" height="99.2126"/>
			<path d="M0 538.58 A78.5109 56.6929 0 0 1 157.02 538.58 A78.5109 56.6929 0 0 1 0 538.58 Z" class="st1"/>
			<text x="15.06" y="545.78" class="st2" v:langID="2052"><v:paragraph v:horizAlign="1"/><v:tabList/>Cache Server</text>		</g>
		<g id="shape20-4" v:mID="20" v:groupContext="shape" transform="translate(465.618,-102.047)">
			<title>椭圆形.20</title>
			<desc>Cache Server</desc>
			<v:userDefs>
				<v:ud v:nameU="visVersion" v:val="VT0(15):26"/>
				<v:ud v:nameU="visMasterStencil" v:prompt="" v:val="VT4(Basic_M.vssx)"/>
			</v:userDefs>
			<v:textBlock v:margins="rect(4,4,4,4)" v:tabSpace="42.5197"/>
			<v:textRect cx="78.5109" cy="538.583" width="137.4" height="99.2126"/>
			<path d="M0 538.58 A78.5109 56.6929 0 0 1 157.02 538.58 A78.5109 56.6929 0 0 1 0 538.58 Z" class="st1"/>
			<text x="15.06" y="545.78" class="st2" v:langID="2052"><v:paragraph v:horizAlign="1"/><v:tabList/>Cache Server</text>		</g>
		<g id="shape9-7" v:mID="9" v:groupContext="shape" transform="translate(271.958,-445.039)">
			<title>椭圆形</title>
			<desc>Master</desc>
			<v:userDefs>
				<v:ud v:nameU="visVersion" v:val="VT0(15):26"/>
				<v:ud v:nameU="visMasterStencil" v:prompt="" v:val="VT4(Basic_M.vssx)"/>
			</v:userDefs>
			<v:textBlock v:margins="rect(4,4,4,4)" v:tabSpace="42.5197"/>
			<v:textRect cx="78.5109" cy="538.583" width="137.4" height="99.2126"/>
			<path d="M0 538.58 A78.5109 56.6929 0 0 1 157.02 538.58 A78.5109 56.6929 0 0 1 0 538.58 Z" class="st3"/>
			<text x="43.64" y="545.78" class="st2" v:langID="2052"><v:paragraph v:horizAlign="1"/><v:tabList/>Master</text>		</g>
		<g id="shape10-10" v:mID="10" v:groupContext="shape" transform="translate(36.4253,-93.5433)">
			<title>椭圆形.10</title>
			<desc>Client</desc>
			<v:userDefs>
				<v:ud v:nameU="visVersion" v:val="VT0(15):26"/>
				<v:ud v:nameU="visMasterStencil" v:prompt="" v:val="VT4(Basic_M.vssx)"/>
			</v:userDefs>
			<v:textBlock v:margins="rect(4,4,4,4)" v:tabSpace="42.5197"/>
			<v:textRect cx="78.5109" cy="538.583" width="137.4" height="99.2126"/>
			<path d="M0 538.58 A78.5109 56.6929 0 0 1 157.02 538.58 A78.5109 56.6929 0 0 1 0 538.58 Z" class="st3"/>
			<text x="50.31" y="545.78" class="st2" v:langID="2052"><v:paragraph v:horizAlign="1"/><v:tabList/>Client</text>		</g>
		<g id="shape11-13" v:mID="11" v:groupContext="shape" transform="translate(460.384,-96.378)">
			<title>椭圆形.11</title>
			<desc>Cache Server</desc>
			<v:userDefs>
				<v:ud v:nameU="visVersion" v:val="VT0(15):26"/>
				<v:ud v:nameU="visMasterStencil" v:prompt="" v:val="VT4(Basic_M.vssx)"/>
			</v:userDefs>
			<v:textBlock v:margins="rect(4,4,4,4)" v:tabSpace="42.5197"/>
			<v:textRect cx="78.5109" cy="538.583" width="137.4" height="99.2126"/>
			<path d="M0 538.58 A78.5109 56.6929 0 0 1 157.02 538.58 A78.5109 56.6929 0 0 1 0 538.58 Z" class="st3"/>
			<text x="15.06" y="545.78" class="st2" v:langID="2052"><v:paragraph v:horizAlign="1"/><v:tabList/>Cache Server</text>		</g>
		<g id="shape16-16" v:mID="16" v:groupContext="shape" transform="translate(749.43,347.86) rotate(118.041)">
			<title>工作表.16</title>
			<path d="M6.79 548.59 L7.03 548.86 A265.038 165.203 -23.95 0 0 324.79 546.13 L325.11 545.95" class="st4"/>
		</g>
		<g id="shape19-25" v:mID="19" v:groupContext="shape" transform="translate(-353.501,112.864) rotate(-60.7832)">
			<title>工作表.19</title>
			<path d="M9.4 580.07 L9.73 580.21 A225.735 61.1937 -6.15 0 0 288.08 578.36 L288.43 578.28" class="st4"/>
		</g>
		<g id="shape23-32" v:mID="23" v:groupContext="shape" transform="translate(976.892,-139.147) rotate(66.9898)">
			<title>工作表.23</title>
			<path d="M5.01 586.39 L5.19 586.08 A280.436 130.092 25.14 0 1 298.36 590.9 L298.69 591.05" class="st4"/>
		</g>
		<g id="shape25-39" v:mID="25" v:groupContext="shape" transform="translate(933.353,-79.9858) rotate(67.921)">
			<title>工作表.25</title>
			<path d="M9.82 572.91 L10.17 573.01 A223.482 73.6482 -168 0 0 271.52 570.17" class="st6"/>
		</g>
		<g id="shape28-44" v:mID="28" v:groupContext="shape" transform="translate(190.325,-169.083) rotate(0.129397)">
			<title>工作表.28</title>
			<path d="M6.95 587.81 L7.19 587.55 A257.049 54.5687 10.89 0 1 264 593.22 L264.35 593.29" class="st4"/>
		</g>
		<g id="shape31-51" v:mID="31" v:groupContext="shape" transform="translate(67.2771,-406.858)">
			<title>工作表.31</title>
			<desc>1</desc>
			<v:textBlock v:margins="rect(4,4,4,4)" v:tabSpace="42.5197"/>
			<v:textRect cx="70.1655" cy="585.276" width="140.34" height="20"/>
			<rect x="0" y="575.276" width="140.331" height="20" class="st7"/>
			<text x="64.08" y="592.48" class="st8" v:langID="2052"><v:paragraph v:horizAlign="1"/><v:tabList/>1</text>		</g>
		<g id="shape32-54" v:mID="32" v:groupContext="shape" transform="translate(154.163,-328.622)">
			<title>工作表.32</title>
			<desc>2</desc>
			<v:textBlock v:margins="rect(4,4,4,4)" v:tabSpace="42.5197"/>
			<v:textRect cx="70.1655" cy="585.276" width="140.34" height="20"/>
			<rect x="0" y="575.276" width="140.331" height="20" class="st7"/>
			<text x="64.08" y="592.48" class="st8" v:langID="2052"><v:paragraph v:horizAlign="1"/><v:tabList/>2</text>		</g>
		<g id="shape33-57" v:mID="33" v:groupContext="shape" transform="translate(341.018,-320.685)">
			<title>工作表.33</title>
			<desc>3</desc>
			<v:textBlock v:margins="rect(4,4,4,4)" v:tabSpace="42.5197"/>
			<v:textRect cx="70.1655" cy="585.276" width="140.34" height="20"/>
			<rect x="0" y="575.276" width="140.331" height="20" class="st7"/>
			<text x="64.08" y="592.48" class="st8" v:langID="2052"><v:paragraph v:horizAlign="1"/><v:tabList/>3</text>		</g>
		<g id="shape34-60" v:mID="34" v:groupContext="shape" transform="translate(470.823,-392.118)">
			<title>工作表.34</title>
			<desc>4</desc>
			<v:textBlock v:margins="rect(4,4,4,4)" v:tabSpace="42.5197"/>
			<v:textRect cx="70.1655" cy="585.276" width="140.34" height="20"/>
			<rect x="0" y="575.276" width="140.331" height="20" class="st7"/>
			<text x="64.08" y="592.48" class="st8" v:langID="2052"><v:paragraph v:horizAlign="1"/><v:tabList/>4</text>		</g>
		<g id="shape35-63" v:mID="35" v:groupContext="shape" transform="translate(246.282,-193.693)">
			<title>工作表.35</title>
			<desc>5</desc>
			<v:textBlock v:margins="rect(4,4,4,4)" v:tabSpace="42.5197"/>
			<v:textRect cx="70.1655" cy="585.276" width="140.34" height="20"/>
			<rect x="0" y="575.276" width="140.331" height="20" class="st7"/>
			<text x="64.08" y="592.48" class="st8" v:langID="2052"><v:paragraph v:horizAlign="1"/><v:tabList/>5</text>		</g>
		<g id="shape37-66" v:mID="37" v:groupContext="shape" transform="translate(649.134,-406.995)">
			<title>椭圆形.37</title>
			<desc>Cache Server</desc>
			<v:userDefs>
				<v:ud v:nameU="visVersion" v:val="VT0(15):26"/>
				<v:ud v:nameU="visMasterStencil" v:prompt="" v:val="VT4(Basic_M.vssx)"/>
			</v:userDefs>
			<v:textBlock v:margins="rect(4,4,4,4)" v:tabSpace="42.5197"/>
			<v:textRect cx="79.3701" cy="538.583" width="138.9" height="99.2126"/>
			<path d="M0 538.58 A79.3701 56.6929 0 1 1 158.74 538.58 A79.3701 56.6929 0 1 1 0 538.58 Z" class="st3"/>
			<text x="15.92" y="545.78" class="st2" v:langID="2052"><v:paragraph v:horizAlign="1"/><v:tabList/>Cache Server</text>		</g>
		<g id="shape38-69" v:mID="38" v:groupContext="shape" transform="translate(649.134,-127.559)">
			<title>椭圆形.38</title>
			<desc>Cache Server</desc>
			<v:userDefs>
				<v:ud v:nameU="visVersion" v:val="VT0(15):26"/>
				<v:ud v:nameU="visMasterStencil" v:prompt="" v:val="VT4(Basic_M.vssx)"/>
			</v:userDefs>
			<v:textBlock v:margins="rect(4,4,4,4)" v:tabSpace="42.5197"/>
			<v:textRect cx="79.3701" cy="538.583" width="138.9" height="99.2126"/>
			<path d="M0 538.58 A79.3701 56.6929 0 1 1 158.74 538.58 A79.3701 56.6929 0 1 1 0 538.58 Z" class="st3"/>
			<text x="15.92" y="545.78" class="st2" v:langID="2052"><v:paragraph v:horizAlign="1"/><v:tabList/>Cache Server</text>		</g>
		<g id="shape39-72" v:mID="39" v:groupContext="shape" transform="translate(1340.77,185.162) rotate(89.8264)">
			<title>工作表.39</title>
			<path d="M7.81 588.71 L8.08 588.48 A158.183 33.9431 11.02 0 1 158.4 593.22 L158.76 593.29" class="st4"/>
		</g>
		<g id="shape40-79" v:mID="40" v:groupContext="shape" transform="translate(110.207,359.999) rotate(-90.3108)">
			<title>工作表.40</title>
			<path d="M5.76 586.86 L5.96 586.56 A175.05 37.9351 13.42 0 1 160.82 593 L161.18 593.08" class="st4"/>
		</g>
		<g id="shape41-86" v:mID="41" v:groupContext="shape" transform="translate(595.276,-315.984)">
			<title>工作表.41</title>
			<desc>7</desc>
			<v:textBlock v:margins="rect(4,4,4,4)" v:tabSpace="42.5197"/>
			<v:textRect cx="76" cy="585.276" width="152" height="20"/>
			<rect x="0" y="575.276" width="152" height="20" class="st7"/>
			<text x="69.92" y="592.48" class="st8" v:langID="2052"><v:paragraph v:horizAlign="1"/><v:tabList/>7</text>		</g>
		<g id="shape42-89" v:mID="42" v:groupContext="shape" transform="translate(748.346,-311.811)">
			<title>工作表.42</title>
			<desc>8</desc>
			<v:textBlock v:margins="rect(4,4,4,4)" v:tabSpace="42.5197"/>
			<v:textRect cx="29.7638" cy="585.276" width="59.53" height="20"/>
			<rect x="0" y="575.276" width="59.5276" height="20" class="st7"/>
			<text x="23.68" y="592.48" class="st8" v:langID="2052"><v:paragraph v:horizAlign="1"/><v:tabList/>8</text>		</g>
		<g id="shape46-92" v:mID="46" v:groupContext="shape" transform="translate(-24.8066,600.247) rotate(-111.616)">
			<title>工作表.46</title>
			<path d="M10.11 593.93 L10.47 593.88 A207.771 22.5739 1.47 0 1 275.65 594.34 L276.01 594.37" class="st4"/>
		</g>
		<g id="shape47-99" v:mID="47" v:groupContext="shape" transform="translate(411.024,-348.504)">
			<title>工作表.47</title>
			<desc>6</desc>
			<v:textBlock v:margins="rect(4,4,4,4)" v:tabSpace="42.5197"/>
			<v:textRect cx="70.1655" cy="585.276" width="140.34" height="20"/>
			<rect x="0" y="575.276" width="140.331" height="20" class="st7"/>
			<text x="64.08" y="592.48" class="st8" v:langID="2052"><v:paragraph v:horizAlign="1"/><v:tabList/>6</text>		</g>
	</g>
</svg>
